<?xml version="1.0" encoding="UTF-8"?><svg id="Layer_1" xmlns="http://www.w3.org/2000/svg" xmlns:xlink="http://www.w3.org/1999/xlink" viewBox="0 0 47.1 800.26"><defs><clipPath id="clippath"><rect y="561.6" width="47.1" height="238.66" style="fill:none;"/></clipPath><clipPath id="clippath-1"><rect x="0" y="561.6" width="47.1" height="238.66" style="fill:none;"/></clipPath></defs><g id="Artwork_8"><g style="clip-path:url(#clippath);"><g style="clip-path:url(#clippath-1);"><path d="M24.63,746.85c4.05,0,6.12,2.08,6.12,5.34s-2.08,5.17-6.12,5.17H7.83v8.54h19.49c6.91,0,11.18-3.77,11.18-10.23,0-4.33-2.3-6.85-4.83-8.82h4.27v-8.54H7.83v8.54h16.8Z" style="fill:#fff;"/><path d="M13.9,726.66h-6.07v8.54h30.11v-8.54h-11.12c-7.19,0-10.62-3.48-10.62-9.16v-.45H7.27c-.22,5.06,2.47,7.86,6.63,9.61" style="fill:#fff;"/><path d="M19.74,701.01c-1.12,3.26-1.91,6.12-3.6,6.12h-.11c-1.18,0-2.08-1.07-2.08-3.15,0-2.19,1.07-5.17,2.81-8.15l-5.9-3.26c-2.19,3.26-3.48,7.41-3.48,11.23,0,6.07,3.43,11.01,9.55,11.01h.11c5.84,0,7.81-4.77,9.04-8.99,1.01-3.31,1.63-6.24,3.48-6.24h.11c1.35,0,2.25,1.12,2.25,3.6,0,2.81-1.24,6.24-3.59,9.49l5.62,3.65c3.15-3.99,4.55-8.71,4.55-12.92,0-6.52-3.03-11.52-9.72-11.52h-.11c-5.5,0-7.53,4.89-8.93,9.1" style="fill:#fff;"/><path d="M7.49,675.59c0,5.11.96,8.37,2.41,11.68l6.52-2.13c-1.01-2.75-1.63-5.06-1.63-8.32,0-4.27,1.97-6.46,5.51-6.46h.5c-.73,2.13-1.24,4.32-1.24,7.36,0,7.13,3.03,12.13,9.6,12.13h.11c5.96,0,9.21-4.66,9.21-10.34,0-4.16-1.52-7.02-3.82-9.1h3.26v-8.26h-17.47c-4.05,0-7.36,1.01-9.61,3.26-2.13,2.13-3.37,5.5-3.37,10.17M27.32,670.25c3.09,0,5.28,2.7,5.28,6.68,0,2.75-1.35,4.66-3.65,4.66h-.11c-2.69,0-4.16-2.25-4.16-5.9,0-2.08.45-3.99,1.12-5.45h1.52Z" style="fill:#fff;"/><path d="M7.83,638.86l20.5,6.57-20.5,6.85v9.05l30.22-11.8c1.52.73,1.97,1.52,1.97,2.98,0,1.12-.51,2.53-1.18,3.65l6.18,2.86c1.29-2.19,2.08-4.49,2.08-7.58,0-5.11-2.3-7.58-8.43-9.88l-30.84-11.57v8.88Z" style="fill:#fff;"/><path d="M19.74,615.67c-1.12,3.26-1.91,6.12-3.6,6.12h-.11c-1.18,0-2.08-1.07-2.08-3.15,0-2.19,1.07-5.17,2.81-8.15l-5.9-3.26c-2.19,3.26-3.48,7.41-3.48,11.24,0,6.07,3.43,11.01,9.55,11.01h.11c5.84,0,7.81-4.78,9.04-8.99,1.01-3.31,1.63-6.24,3.48-6.24h.11c1.35,0,2.25,1.12,2.25,3.6,0,2.81-1.24,6.24-3.59,9.5l5.62,3.65c3.15-3.99,4.55-8.71,4.55-12.92,0-6.52-3.03-11.52-9.72-11.52h-.11c-5.5,0-7.53,4.89-8.93,9.1" style="fill:#fff;"/><path d="M7.43,784.12c0,9.26,6.93,16.13,15.47,16.13h.11c8.54,0,15.36-6.82,15.36-16.02s-6.93-16.14-15.47-16.14h-.11c-8.54,0-15.36,6.82-15.36,16.03M23.01,776.42c2.84,0,5.39,1.22,6.84,3.38.09.04,1.3.62,2.13-.12,0,0,.95-1.01.98-.33,0,0,.25,1.88-2.01,3.21.09.5.14,1.01.14,1.56,0,4.66-3.82,7.82-8.2,7.82h-.11c-4.38,0-8.1-2.88-8.1-7.71s3.83-7.82,8.21-7.82h.11Z" style="fill:#fff;"/><path d="M7.43,588.21c0,9.26,6.93,16.13,15.47,16.13h.11c8.54,0,15.36-6.82,15.36-16.02s-6.93-16.14-15.47-16.14h-.11c-8.54,0-15.36,6.82-15.36,16.03M23.01,580.5c2.84,0,5.39,1.22,6.84,3.38.09.04,1.3.62,2.13-.12,0,0,.95-1.01.98-.33,0,0,.25,1.88-2.01,3.21.09.5.14,1.01.14,1.56,0,4.66-3.82,7.82-8.2,7.82h-.11c-4.38,0-8.1-2.88-8.1-7.71s3.83-7.82,8.21-7.82h.11Z" style="fill:#fff;"/><path d="M5.62,561.6c3.51.17,5.58,2.88,5.49,5.66-.11,3.6-3.02,5.55-5.64,5.47-3.55-.11-5.54-2.95-5.47-5.63.1-3.48,2.82-5.49,5.62-5.5M5.56,562.55c-2.63-.02-4.64,2.13-4.64,4.63,0,2.51,2.04,4.64,4.64,4.64,2.49,0,4.6-2.03,4.63-4.59.03-2.66-2.14-4.7-4.64-4.68" style="fill:#fff;"/><path d="M2.81,569.14s-.02-.06-.02-.09c0-.99-.02-1.98.04-2.97.04-.54.3-1.01.89-1.22.63-.22,1.18-.14,1.65.35.09.09.14.21.22.32.01-.02.04-.04.05-.07.15-.37.45-.52.83-.54.34-.02.69-.03,1.03-.04.18,0,.36-.02.48-.19.02-.03.08-.02.15-.04,0,.4,0,.78,0,1.16,0,.05-.12.12-.2.14-.19.03-.39.05-.58.06-.17,0-.35,0-.52,0-.57.02-.77.22-.78.78,0,.41,0,.82,0,1.26h2.07v1.09H2.81ZM5.11,568.04c0-.55.02-1.08,0-1.6-.02-.41-.31-.55-.75-.55-.33,0-.62.25-.64.6-.03.51,0,1.03,0,1.55h1.4Z" style="fill:#fff;"/></g></g></g><path d="M38.57,533.27l-29.74,8.52-.13.04c-.23,0-.35-.15-.35-.44v-1.48c0-.23.12-.39.35-.48l25.46-7.25c.06-.03.09-.07.09-.11s-.03-.08-.09-.11l-25.42-6.73c-.26-.06-.39-.22-.39-.48v-1.53c0-.26.13-.42.39-.48l25.42-6.94c.06-.03.09-.07.09-.11s-.03-.08-.09-.11l-25.46-7.34c-.23-.09-.35-.25-.35-.48v-1.4c0-.15.04-.25.13-.33.09-.07.2-.09.35-.07l29.74,8.52c.23.09.35.25.35.48v1.53c0,.26-.13.42-.39.48l-25.9,6.86c-.06.03-.09.07-.09.11s.03.08.09.11l25.9,6.81c.26.06.39.22.39.48v1.44c0,.23-.12.39-.35.48Z" style="fill:#fff;"/><path d="M37.65,500.17c-1.08,1.46-2.52,2.45-4.32,2.97-1.16.32-2.98.48-5.46.48s-4.28-.16-5.42-.48c-1.81-.52-3.24-1.51-4.3-2.95-1.06-1.44-1.59-3.21-1.59-5.31s.54-3.79,1.62-5.26c1.08-1.47,2.5-2.45,4.28-2.95.67-.17,1.42-.29,2.25-.35.83-.06,1.89-.09,3.17-.09s2.42.03,3.23.09c.82.06,1.56.17,2.23.35,1.81.5,3.25,1.48,4.32,2.95,1.08,1.47,1.62,3.24,1.62,5.31s-.54,3.79-1.62,5.24ZM35.93,490.97c-.86-1.09-1.99-1.8-3.39-2.12-.79-.2-2.33-.31-4.63-.31s-3.87.09-4.63.26c-1.43.32-2.56,1.03-3.41,2.12-.84,1.09-1.27,2.42-1.27,4s.42,2.9,1.27,3.97c.84,1.08,1.98,1.78,3.41,2.1.9.2,2.45.31,4.63.31s3.73-.1,4.63-.31c1.43-.32,2.56-1.02,3.41-2.1.84-1.08,1.27-2.4,1.27-3.97s-.43-2.86-1.29-3.95Z" style="fill:#fff;"/><path d="M17.26,468.5c.09-.23.28-.32.57-.26l1.4.39c.29.09.38.28.26.57-.23.58-.33,1.31-.31,2.18.03,1.63.65,2.98,1.86,4.04,1.21,1.06,2.69,1.59,4.43,1.59h13.02c.29,0,.44.15.44.44v1.44c0,.29-.15.44-.44.44h-21.14c-.29,0-.44-.15-.44-.44v-1.44c0-.29.15-.44.44-.44h2.97c.09,0,.14-.02.15-.07.01-.04-.02-.08-.11-.11-1.14-.61-2.02-1.4-2.66-2.38-.64-.98-.96-2.12-.96-3.43,0-.99.17-1.83.52-2.53Z" style="fill:#fff;"/><path d="M38.49,463.65H8.79c-.29,0-.44-.15-.44-.44v-1.44c0-.29.15-.44.44-.44h29.7c.29,0,.44.15.44.44v1.44c0,.29-.15.44-.44.44Z" style="fill:#fff;"/><path d="M8.35,439.63v-1.44c0-.29.15-.44.44-.44h29.7c.29,0,.44.15.44.44v1.44c0,.29-.15.44-.44.44h-2.14c-.09,0-.14.02-.15.07-.01.04,0,.09.07.15.96.61,1.7,1.43,2.23,2.45.52,1.02.79,2.17.79,3.45,0,1.98-.52,3.65-1.57,5.02-1.05,1.37-2.46,2.3-4.24,2.8-.67.2-1.42.33-2.25.39-.83.06-1.91.09-3.25.09s-2.39-.03-3.23-.09c-.84-.06-1.6-.17-2.27-.35-1.81-.44-3.24-1.35-4.3-2.73-1.06-1.38-1.59-3.09-1.59-5.13,0-1.28.26-2.43.79-3.45.52-1.02,1.27-1.83,2.23-2.45.09-.03.12-.07.11-.13-.01-.06-.07-.09-.15-.09h-10.74c-.29,0-.44-.15-.44-.44ZM31.23,440.22c-.7-.07-1.79-.11-3.28-.11s-2.67.04-3.39.13c-.71.09-1.36.23-1.94.44-1.19.32-2.16.94-2.9,1.86s-1.11,2.05-1.11,3.39.37,2.55,1.11,3.54c.74.99,1.7,1.66,2.86,2.01.55.26,1.19.44,1.9.55.71.1,1.86.15,3.43.15s2.61-.04,3.3-.13c.68-.09,1.32-.23,1.9-.44,1.22-.29,2.21-.95,2.97-1.97.76-1.02,1.14-2.24,1.14-3.67s-.38-2.51-1.14-3.43c-.76-.92-1.75-1.55-2.97-1.9-.55-.2-1.18-.34-1.88-.41Z" style="fill:#fff;"/><path d="M38.14,417.01c-.79,1.51-1.9,2.69-3.34,3.52-1.44.83-3.09,1.24-4.96,1.24h-12.45c-1.86,0-3.5-.41-4.91-1.24-1.41-.83-2.51-2-3.3-3.52s-1.18-3.26-1.18-5.24.39-3.68,1.16-5.2c.77-1.51,1.86-2.69,3.25-3.52,1.4-.83,3.01-1.24,4.85-1.24h.04c.15,0,.26.04.35.13s.13.19.13.31l.09,1.44c0,.29-.15.44-.44.44h-.13c-2.18,0-3.94.7-5.26,2.1-1.32,1.4-1.99,3.25-1.99,5.55s.66,4.19,1.99,5.59c1.33,1.4,3.08,2.1,5.26,2.1h12.67c2.18,0,3.95-.71,5.28-2.12,1.34-1.41,2.01-3.27,2.01-5.57s-.67-4.15-2.01-5.55c-1.34-1.4-3.1-2.1-5.28-2.1h-.09c-.26,0-.39-.15-.39-.44l.09-1.44c0-.29.13-.44.39-.44,1.83,0,3.46.41,4.87,1.24,1.41.83,2.51,2,3.3,3.52.79,1.51,1.18,3.25,1.18,5.2s-.39,3.73-1.18,5.24Z" style="fill:#fff;"/><path d="M38.49,394.91H8.79c-.29,0-.44-.14-.44-.44v-1.44c0-.29.15-.44.44-.44h29.7c.29,0,.44.15.44.44v1.44c0,.29-.15.44-.44.44Z" style="fill:#fff;"/><path d="M18.55,371.89c1.32-1.34,3.11-2.01,5.35-2.01h14.59c.29,0,.44.15.44.44v1.44c0,.29-.15.44-.44.44h-2.05c-.06,0-.1.02-.13.07-.03.04-.01.1.04.15.96.76,1.69,1.74,2.18,2.95.49,1.21.74,2.55.74,4.04,0,2.01-.51,3.71-1.53,5.11-1.02,1.4-2.58,2.1-4.67,2.1s-3.86-.8-5.11-2.4c-1.25-1.6-1.88-3.8-1.88-6.59v-5.24c0-.12-.06-.18-.17-.18h-1.97c-1.63,0-2.93.46-3.89,1.38-.96.92-1.44,2.32-1.44,4.21,0,1.48.31,2.71.92,3.67.61.96,1.43,1.56,2.45,1.79.29.09.42.26.39.52l-.22,1.53c-.06.32-.17.45-.35.39-1.57-.26-2.84-1.11-3.8-2.55-.96-1.44-1.44-3.24-1.44-5.39,0-2.56.66-4.51,1.99-5.85ZM35.91,374.23c-.9-1.35-2.15-2.03-3.76-2.03h-3.97c-.12,0-.17.06-.17.18v5.02c0,2.07.44,3.73,1.31,5,.87,1.27,2.08,1.9,3.63,1.9,1.43,0,2.5-.49,3.23-1.48.73-.99,1.09-2.26,1.09-3.8,0-1.83-.45-3.43-1.35-4.78Z" style="fill:#fff;"/><path d="M38.38,360.25c-.51,1.21-1.2,2.15-2.08,2.82-.87.67-1.83,1-2.88,1h-.57c-.29,0-.44-.15-.44-.44v-1.35c0-.29.15-.44.44-.44h.48c1.08,0,2-.54,2.77-1.62s1.16-2.45,1.16-4.11-.39-2.95-1.18-3.97-1.76-1.53-2.93-1.53c-.81,0-1.48.26-2.01.79-.52.52-.92,1.14-1.2,1.86s-.63,1.78-1.07,3.21c-.49,1.63-.96,2.94-1.4,3.93-.44.99-1.05,1.83-1.86,2.51-.8.68-1.81,1.03-3.04,1.03-1.78,0-3.2-.71-4.26-2.12-1.06-1.41-1.59-3.27-1.59-5.57,0-1.54.25-2.9.76-4.08.51-1.18,1.2-2.1,2.07-2.75.87-.66,1.86-.98,2.97-.98h.13c.29,0,.44.15.44.44v1.35c0,.29-.15.44-.44.44h-.13c-1.11,0-2.03.52-2.77,1.55-.74,1.03-1.11,2.4-1.11,4.08s.34,2.94,1.03,3.93c.68.99,1.61,1.48,2.77,1.48s1.94-.46,2.49-1.38c.55-.92,1.12-2.35,1.7-4.3.5-1.69.96-3.04,1.4-4.04s1.06-1.87,1.86-2.6c.8-.73,1.84-1.09,3.12-1.09,1.83,0,3.31.71,4.43,2.12,1.12,1.41,1.68,3.3,1.68,5.66,0,1.57-.25,2.96-.76,4.17Z" style="fill:#fff;"/><path d="M38.38,340.16c-.51,1.21-1.2,2.15-2.08,2.82-.87.67-1.83,1-2.88,1h-.57c-.29,0-.44-.15-.44-.44v-1.35c0-.29.15-.44.44-.44h.48c1.08,0,2-.54,2.77-1.62s1.16-2.45,1.16-4.11-.39-2.95-1.18-3.97-1.76-1.53-2.93-1.53c-.81,0-1.48.26-2.01.79-.52.52-.92,1.14-1.2,1.86s-.63,1.78-1.07,3.21c-.49,1.63-.96,2.94-1.4,3.93-.44.99-1.05,1.83-1.86,2.51-.8.68-1.81,1.03-3.04,1.03-1.78,0-3.2-.71-4.26-2.12-1.06-1.41-1.59-3.27-1.59-5.57,0-1.54.25-2.9.76-4.08.51-1.18,1.2-2.1,2.07-2.75.87-.66,1.86-.98,2.97-.98h.13c.29,0,.44.15.44.44v1.35c0,.29-.15.44-.44.44h-.13c-1.11,0-2.03.52-2.77,1.55-.74,1.03-1.11,2.4-1.11,4.08s.34,2.94,1.03,3.93c.68.99,1.61,1.48,2.77,1.48s1.94-.46,2.49-1.38c.55-.92,1.12-2.35,1.7-4.3.5-1.69.96-3.04,1.4-4.04s1.06-1.87,1.86-2.6c.8-.73,1.84-1.09,3.12-1.09,1.83,0,3.31.71,4.43,2.12,1.12,1.41,1.68,3.3,1.68,5.66,0,1.57-.25,2.96-.76,4.17Z" style="fill:#fff;"/><path d="M38.14,308.87c-.79,1.51-1.9,2.69-3.34,3.52-1.44.83-3.09,1.24-4.96,1.24h-12.45c-1.86,0-3.5-.41-4.91-1.24-1.41-.83-2.51-2-3.3-3.52-.79-1.51-1.18-3.26-1.18-5.24s.39-3.68,1.16-5.2c.77-1.51,1.86-2.69,3.25-3.52,1.4-.83,3.01-1.24,4.85-1.24h.04c.15,0,.26.04.35.13.09.09.13.19.13.31l.09,1.44c0,.29-.15.44-.44.44h-.13c-2.18,0-3.94.7-5.26,2.1-1.32,1.4-1.99,3.25-1.99,5.55s.66,4.19,1.99,5.59c1.33,1.4,3.08,2.1,5.26,2.1h12.67c2.18,0,3.95-.71,5.28-2.12,1.34-1.41,2.01-3.27,2.01-5.57s-.67-4.15-2.01-5.55c-1.34-1.4-3.1-2.1-5.28-2.1h-.09c-.26,0-.39-.14-.39-.44l.09-1.44c0-.29.13-.44.39-.44,1.83,0,3.46.41,4.87,1.24,1.41.83,2.51,2,3.3,3.52.79,1.51,1.18,3.25,1.18,5.2s-.39,3.73-1.18,5.24Z" style="fill:#fff;"/><path d="M37.65,284.06c-1.08,1.46-2.52,2.45-4.32,2.97-1.16.32-2.98.48-5.46.48s-4.28-.16-5.42-.48c-1.81-.52-3.24-1.51-4.3-2.95-1.06-1.44-1.59-3.21-1.59-5.31s.54-3.79,1.62-5.26c1.08-1.47,2.5-2.45,4.28-2.95.67-.18,1.42-.29,2.25-.35.83-.06,1.89-.09,3.17-.09s2.42.03,3.23.09c.82.06,1.56.17,2.23.35,1.81.5,3.25,1.48,4.32,2.95,1.08,1.47,1.62,3.24,1.62,5.31s-.54,3.79-1.62,5.24ZM35.93,274.87c-.86-1.09-1.99-1.8-3.39-2.12-.79-.2-2.33-.31-4.63-.31s-3.87.09-4.63.26c-1.43.32-2.56,1.03-3.41,2.12-.84,1.09-1.27,2.42-1.27,4s.42,2.9,1.27,3.97c.84,1.08,1.98,1.78,3.41,2.1.9.2,2.45.31,4.63.31s3.73-.1,4.63-.31c1.43-.32,2.56-1.02,3.41-2.1.84-1.08,1.27-2.4,1.27-3.97s-.43-2.86-1.29-3.95Z" style="fill:#fff;"/><path d="M18.53,236.28c1.28-1.28,3.04-1.92,5.28-1.92h14.67c.29,0,.44.15.44.44v1.4c0,.29-.15.44-.44.44h-14.24c-1.72,0-3.08.5-4.08,1.51-1,1-1.51,2.31-1.51,3.91,0,1.69.5,3.05,1.48,4.08.99,1.03,2.33,1.55,4.02,1.55h14.33c.29,0,.44.15.44.44v1.4c0,.29-.15.44-.44.44h-14.24c-1.72,0-3.08.5-4.08,1.48-1,.99-1.51,2.29-1.51,3.89,0,1.72.5,3.08,1.48,4.08.99,1,2.33,1.51,4.02,1.51h14.33c.29,0,.44.15.44.44v1.44c0,.29-.15.44-.44.44h-21.14c-.29,0-.44-.15-.44-.44v-1.44c0-.29.15-.44.44-.44h1.96c.06,0,.1-.03.13-.09s.01-.1-.04-.13c-.93-.61-1.63-1.43-2.1-2.47-.47-1.03-.7-2.2-.7-3.52,0-1.51.33-2.82.98-3.91s1.58-1.91,2.77-2.47c.12-.06.13-.13.04-.22-1.25-.61-2.2-1.5-2.84-2.66-.64-1.16-.96-2.52-.96-4.06,0-2.12.64-3.83,1.92-5.11Z" style="fill:#fff;"/><path d="M18.53,200.16c1.28-1.28,3.04-1.92,5.28-1.92h14.67c.29,0,.44.15.44.44v1.4c0,.29-.15.44-.44.44h-14.24c-1.72,0-3.08.5-4.08,1.51-1,1-1.51,2.31-1.51,3.91,0,1.69.5,3.05,1.48,4.08.99,1.03,2.33,1.55,4.02,1.55h14.33c.29,0,.44.15.44.44v1.4c0,.29-.15.44-.44.44h-14.24c-1.72,0-3.08.5-4.08,1.48-1,.99-1.51,2.29-1.51,3.89,0,1.72.5,3.08,1.48,4.08.99,1,2.33,1.51,4.02,1.51h14.33c.29,0,.44.15.44.44v1.44c0,.29-.15.44-.44.44h-21.14c-.29,0-.44-.15-.44-.44v-1.44c0-.29.15-.44.44-.44h1.96c.06,0,.1-.03.13-.09s.01-.1-.04-.13c-.93-.61-1.63-1.43-2.1-2.47-.47-1.03-.7-2.2-.7-3.52,0-1.51.33-2.82.98-3.91s1.58-1.91,2.77-2.47c.12-.06.13-.13.04-.22-1.25-.61-2.2-1.5-2.84-2.66-.64-1.16-.96-2.52-.96-4.06,0-2.12.64-3.83,1.92-5.11Z" style="fill:#fff;"/><path d="M16.91,177.06v-1.4c0-.29.15-.44.44-.44h21.14c.29,0,.44.15.44.44v1.4c0,.29-.15.44-.44.44h-2.14c-.09,0-.14.03-.15.09-.01.06.02.1.11.13.96.61,1.69,1.43,2.18,2.47s.74,2.25.74,3.65c0,2.16-.64,3.95-1.92,5.37-1.28,1.43-3.04,2.14-5.28,2.14h-14.67c-.29,0-.44-.14-.44-.44v-1.4c0-.29.15-.44.44-.44h14.06c1.75,0,3.14-.52,4.19-1.55,1.05-1.03,1.57-2.41,1.57-4.13s-.53-3.2-1.59-4.28c-1.06-1.08-2.45-1.62-4.17-1.62h-14.06c-.29,0-.44-.15-.44-.44Z" style="fill:#fff;"/><path d="M18.66,153.54c1.37-1.38,3.17-2.07,5.42-2.07h14.41c.29,0,.44.15.44.44v1.44c0,.29-.15.44-.44.44h-13.98c-1.72,0-3.12.52-4.21,1.57-1.09,1.05-1.64,2.42-1.64,4.11s.53,3.16,1.59,4.24c1.06,1.08,2.45,1.62,4.17,1.62h14.06c.29,0,.44.15.44.44v1.44c0,.29-.15.44-.44.44h-21.14c-.29,0-.44-.15-.44-.44v-1.44c0-.29.15-.44.44-.44h2.14c.09,0,.14-.02.15-.06.02-.04,0-.08-.07-.11-.96-.64-1.7-1.48-2.21-2.53-.51-1.05-.76-2.26-.76-3.63,0-2.24.68-4.05,2.05-5.44Z" style="fill:#fff;"/><path d="M11.89,143.95c-.41.41-.93.61-1.57.61s-1.16-.2-1.57-.61c-.41-.41-.61-.93-.61-1.57s.2-1.16.61-1.57c.41-.41.93-.61,1.57-.61s1.16.2,1.57.61c.41.41.61.93.61,1.57s-.2,1.16-.61,1.57ZM38.44,143.65h-21.14c-.29,0-.44-.14-.44-.44v-1.44c0-.29.15-.44.44-.44h21.14c.29,0,.44.15.44.44v1.44c0,.29-.15.44-.44.44Z" style="fill:#fff;"/><path d="M37.65,130.26c-1.08,1.44-2.52,2.41-4.32,2.9-1.4.38-3.22.57-5.46.57s-3.96-.19-5.42-.57c-1.78-.47-3.2-1.43-4.28-2.88-1.08-1.46-1.62-3.22-1.62-5.29s.52-3.85,1.57-5.35c1.05-1.5,2.36-2.45,3.93-2.86.41-.12.82-.2,1.22-.26h.09c.2,0,.34.13.39.39l.17,1.4v.09c0,.2-.13.34-.39.39l-.61.13c-1.22.26-2.25.95-3.08,2.05-.83,1.11-1.24,2.44-1.24,4.02s.42,2.93,1.27,4c.84,1.06,1.97,1.74,3.36,2.03,1.11.26,2.66.39,4.67.39s3.58-.13,4.63-.39c1.43-.29,2.56-.97,3.41-2.03.84-1.06,1.27-2.39,1.27-4s-.41-2.92-1.24-4.04c-.83-1.12-1.87-1.8-3.12-2.03l-.22-.04c-.32-.06-.45-.23-.39-.52l.22-1.35c.06-.29.22-.42.48-.39l.79.18c1.63.41,2.96,1.36,4,2.86,1.03,1.5,1.55,3.28,1.55,5.35s-.54,3.82-1.62,5.26Z" style="fill:#fff;"/><path d="M18.55,97.31c1.32-1.34,3.11-2.01,5.35-2.01h14.59c.29,0,.44.15.44.44v1.44c0,.29-.15.44-.44.44h-2.05c-.06,0-.1.02-.13.07-.03.04-.01.1.04.15.96.76,1.69,1.74,2.18,2.95.49,1.21.74,2.55.74,4.04,0,2.01-.51,3.71-1.53,5.11-1.02,1.4-2.58,2.1-4.67,2.1s-3.86-.8-5.11-2.4c-1.25-1.6-1.88-3.8-1.88-6.59v-5.24c0-.12-.06-.18-.17-.18h-1.97c-1.63,0-2.93.46-3.89,1.38-.96.92-1.44,2.32-1.44,4.21,0,1.48.31,2.71.92,3.67.61.96,1.43,1.56,2.45,1.79.29.09.42.26.39.52l-.22,1.53c-.06.32-.17.45-.35.39-1.57-.26-2.84-1.11-3.8-2.55-.96-1.44-1.44-3.24-1.44-5.39,0-2.56.66-4.51,1.99-5.85ZM35.91,99.65c-.9-1.35-2.15-2.03-3.76-2.03h-3.97c-.12,0-.17.06-.17.18v5.02c0,2.07.44,3.73,1.31,5,.87,1.27,2.08,1.9,3.63,1.9,1.43,0,2.5-.49,3.23-1.48.73-.99,1.09-2.26,1.09-3.8,0-1.83-.45-3.43-1.35-4.78Z" style="fill:#fff;"/><path d="M18.87,79.75v5.11c0,.12.06.17.17.17h13.8c1.49,0,2.53-.33,3.12-1,.6-.67.9-1.75.9-3.23v-1c0-.29.15-.44.44-.44h1.18c.29,0,.44.15.44.44l.04,1.31c0,2.04-.39,3.57-1.18,4.61-.79,1.03-2.23,1.56-4.32,1.59h-14.41c-.12,0-.17.06-.17.17v2.62c0,.29-.15.44-.44.44h-1.09c-.29,0-.44-.15-.44-.44v-2.62c0-.12-.06-.17-.17-.17h-4.98c-.29,0-.44-.15-.44-.44v-1.4c0-.29.15-.44.44-.44h4.98c.12,0,.17-.06.17-.17v-5.11c0-.29.15-.44.44-.44h1.09c.29,0,.44.15.44.44Z" style="fill:#fff;"/><path d="M11.89,72.59c-.41.41-.93.61-1.57.61s-1.16-.2-1.57-.61c-.41-.41-.61-.93-.61-1.57s.2-1.16.61-1.57c.41-.41.93-.61,1.57-.61s1.16.2,1.57.61c.41.41.61.93.61,1.57s-.2,1.16-.61,1.57ZM38.44,72.28h-21.14c-.29,0-.44-.14-.44-.44v-1.44c0-.29.15-.44.44-.44h21.14c.29,0,.44.15.44.44v1.44c0,.29-.15.44-.44.44Z" style="fill:#fff;"/><path d="M37.65,58.92c-1.08,1.46-2.52,2.45-4.32,2.97-1.16.32-2.98.48-5.46.48s-4.28-.16-5.42-.48c-1.81-.52-3.24-1.51-4.3-2.95-1.06-1.44-1.59-3.21-1.59-5.31s.54-3.79,1.62-5.26c1.08-1.47,2.5-2.45,4.28-2.95.67-.18,1.42-.29,2.25-.35.83-.06,1.89-.09,3.17-.09s2.42.03,3.23.09c.82.06,1.56.17,2.23.35,1.81.5,3.25,1.48,4.32,2.95,1.08,1.47,1.62,3.24,1.62,5.31s-.54,3.79-1.62,5.24ZM35.93,49.72c-.86-1.09-1.99-1.8-3.39-2.12-.79-.2-2.33-.31-4.63-.31s-3.87.09-4.63.26c-1.43.32-2.56,1.03-3.41,2.12-.84,1.09-1.27,2.42-1.27,4s.42,2.9,1.27,3.97c.84,1.08,1.98,1.78,3.41,2.1.9.2,2.45.31,4.63.31s3.73-.1,4.63-.31c1.43-.32,2.56-1.02,3.41-2.1.84-1.08,1.27-2.4,1.27-3.97s-.43-2.86-1.29-3.95Z" style="fill:#fff;"/><path d="M18.66,24c1.37-1.38,3.17-2.07,5.42-2.07h14.41c.29,0,.44.15.44.44v1.44c0,.29-.15.44-.44.44h-13.98c-1.72,0-3.12.52-4.21,1.57-1.09,1.05-1.64,2.42-1.64,4.11s.53,3.16,1.59,4.24c1.06,1.08,2.45,1.62,4.17,1.62h14.06c.29,0,.44.15.44.44v1.44c0,.29-.15.44-.44.44h-21.14c-.29,0-.44-.15-.44-.44v-1.44c0-.29.15-.44.44-.44h2.14c.09,0,.14-.02.15-.06.02-.04,0-.08-.07-.11-.96-.64-1.7-1.48-2.21-2.53-.51-1.05-.76-2.26-.76-3.63,0-2.24.68-4.05,2.05-5.44Z" style="fill:#fff;"/><path d="M38.38,11.95c-.51,1.21-1.2,2.15-2.08,2.82-.87.67-1.83,1-2.88,1h-.57c-.29,0-.44-.15-.44-.44v-1.35c0-.29.15-.44.44-.44h.48c1.08,0,2-.54,2.77-1.62s1.16-2.45,1.16-4.11-.39-2.95-1.18-3.97-1.76-1.53-2.93-1.53c-.81,0-1.48.26-2.01.79-.52.52-.92,1.14-1.2,1.86s-.63,1.78-1.07,3.21c-.49,1.63-.96,2.94-1.4,3.93-.44.99-1.05,1.83-1.86,2.51-.8.68-1.81,1.03-3.04,1.03-1.78,0-3.2-.71-4.26-2.12-1.06-1.41-1.59-3.27-1.59-5.57,0-1.54.25-2.9.76-4.08.51-1.18,1.2-2.1,2.07-2.75.87-.66,1.86-.98,2.97-.98h.13c.29,0,.44.15.44.44v1.35c0,.29-.15.44-.44.44h-.13c-1.11,0-2.03.52-2.77,1.55-.74,1.03-1.11,2.4-1.11,4.08s.34,2.94,1.03,3.93c.68.99,1.61,1.48,2.77,1.48s1.94-.46,2.49-1.38c.55-.92,1.12-2.35,1.7-4.3.5-1.69.96-3.04,1.4-4.04s1.06-1.87,1.86-2.6c.8-.73,1.84-1.09,3.12-1.09,1.83,0,3.31.71,4.43,2.12,1.12,1.41,1.68,3.3,1.68,5.66,0,1.57-.25,2.96-.76,4.17Z" style="fill:#fff;"/></svg>