<?xml version="1.0" encoding="UTF-8"?><svg id="Layer_1" xmlns="http://www.w3.org/2000/svg" xmlns:xlink="http://www.w3.org/1999/xlink" viewBox="0 0 1130.77 223.16"><defs><clipPath id="clippath"><rect y="0" width="1130.77" height="223.16" style="fill:none;"/></clipPath><clipPath id="clippath-1"><rect y="0" width="1130.77" height="223.16" style="fill:none;"/></clipPath></defs><g id="Logo_Black"><g style="clip-path:url(#clippath);"><g style="clip-path:url(#clippath-1);"><path d="M253.04,37.1h40.46v142.67h-40.46v-20.24c-9.31,11.98-21.29,22.9-41.78,22.9-30.61,0-48.45-20.24-48.45-52.98V37.1h40.46v79.59c0,19.17,9.05,29.01,24.48,29.01s25.29-9.84,25.29-29.01V37.1ZM348.74,65.85v-28.76h-40.46v142.67h40.46v-52.7c0-34.07,16.49-50.31,43.39-50.31h2.13v-42.32c-23.96-1.07-37.26,11.72-45.51,31.41M470.25,93.53c-15.44-5.32-29.01-9.05-29.01-17.04v-.53c0-5.59,5.04-9.85,14.9-9.85,10.38,0,24.48,5.06,38.59,13.31l15.44-27.95c-15.44-10.37-35.13-16.49-53.22-16.49-28.76,0-52.18,16.23-52.18,45.25v.53c0,27.68,22.62,36.98,42.59,42.85,15.69,4.79,29.54,7.71,29.54,16.49v.53c0,6.38-5.33,10.65-17.04,10.65-13.32,0-29.54-5.85-44.98-17.04l-17.3,26.63c18.89,14.9,41.25,21.55,61.21,21.55,30.87,0,54.57-14.38,54.57-46.05v-.53c0-26.08-23.16-35.67-43.12-42.33M638.87,51.47c10.65,10.66,15.44,26.36,15.44,45.52v82.79h-39.12v-15.45c-9.86,10.93-23.43,18.11-43.14,18.11-26.87,0-48.97-15.43-48.97-43.65v-.54c0-31.14,23.7-45.5,57.49-45.5,14.38,0,24.76,2.39,34.86,5.85v-2.39c0-16.78-10.37-26.09-30.6-26.09-15.44,0-26.35,2.93-39.4,7.72l-10.11-30.88c15.71-6.91,31.14-11.44,55.37-11.44,22.09,0,38.07,5.85,48.17,15.96M615.99,122.28c-6.93-3.19-15.98-5.33-25.83-5.33-17.29,0-27.94,6.93-27.94,19.7v.53c0,10.92,9.05,17.3,22.1,17.3,18.89,0,31.67-10.39,31.67-25.02v-7.18ZM764.72,37.1l-31.14,97.15-32.48-97.15h-42.86l55.91,143.21c-3.47,7.18-7.2,9.31-14.11,9.31-5.33,0-11.98-2.4-17.3-5.6l-13.58,29.28c10.38,6.14,21.3,9.86,35.94,9.86,24.21,0,35.92-10.92,46.84-39.93l54.83-146.13h-42.06ZM874.58,93.53c-15.44-5.32-29.01-9.05-29.01-17.04v-.53c0-5.59,5.04-9.85,14.9-9.85,10.37,0,24.48,5.06,38.59,13.31l15.43-27.95c-15.43-10.37-35.13-16.49-53.23-16.49-28.74,0-52.17,16.23-52.17,45.25v.53c0,27.68,22.63,36.98,42.59,42.85,15.7,4.79,29.54,7.71,29.54,16.49v.53c0,6.38-5.33,10.65-17.04,10.65-13.32,0-29.54-5.85-45-17.04l-17.29,26.63c18.9,14.9,41.26,21.55,61.22,21.55,30.87,0,54.57-14.38,54.57-46.05v-.53c0-26.08-23.17-35.67-43.12-42.33M152.38,107.96v.52c0,40.45-32.58,73.3-76.45,73.3S0,149.47,0,109.01v-.52C0,68.02,32.59,35.19,76.44,35.19s75.94,32.31,75.94,72.77M112.97,108.48c0-20.75-14.97-38.89-37.04-38.89s-36.51,17.61-36.51,38.36v.52c0,20.75,14.97,38.88,37.03,38.88,2.6,0,5.05-.26,7.41-.68,6.34,10.7,15.23,9.51,15.23,9.51,3.24-.15-1.56-4.66-1.56-4.66-3.52-3.94-.79-9.68-.58-10.11,10.25-6.88,16.02-18.97,16.02-32.41v-.52ZM1080.64,107.96v.52c0,40.45-32.58,73.3-76.45,73.3s-75.92-32.31-75.92-72.77v-.52c0-40.46,32.58-73.3,76.44-73.3s75.93,32.31,75.93,72.77M1041.23,108.48c0-20.75-14.97-38.89-37.04-38.89s-36.51,17.61-36.51,38.36v.52c0,20.75,14.97,38.88,37.04,38.88,2.6,0,5.05-.26,7.4-.68,6.34,10.7,15.23,9.51,15.23,9.51,3.25-.15-1.55-4.66-1.55-4.66-3.52-3.94-.79-9.68-.59-10.11,10.26-6.88,16.02-18.97,16.02-32.41v-.52ZM1130.76,26.64c-.8,16.64-13.65,26.42-26.8,26.02-17.06-.52-26.31-14.29-25.93-26.75.52-16.83,13.99-26.25,26.66-25.9,16.49.45,26.02,13.35,26.06,26.63M1126.31,26.33c.11-12.44-10.09-22-21.95-21.97-11.91.03-22.01,9.65-21.97,22.01.04,11.82,9.6,21.79,21.74,21.93,12.58.15,22.27-10.11,22.18-21.97M1116.1,37.83c.13.09.1.38.18.71-1.9,0-3.7.04-5.49-.04-.24-.02-.58-.58-.64-.93-.17-.9-.22-1.82-.27-2.74-.04-.82,0-1.64,0-2.46-.09-2.7-1.02-3.64-3.69-3.69-1.94-.03-3.89,0-5.95,0v9.81h-5.17V13.31c.17-.04.29-.1.43-.1,4.69.04,9.4-.11,14.07.21,2.54.17,4.79,1.43,5.75,4.19,1.04,2.97.66,5.6-1.64,7.81-.42.41-.98.67-1.54,1.04.1.06.21.18.35.24,1.75.74,2.46,2.15,2.55,3.95.08,1.64.14,3.27.19,4.9.03.87.08,1.7.87,2.28M1110.49,20.65c0-1.55-1.18-2.94-2.84-3.02-2.43-.12-4.87-.03-7.36-.03v6.62c2.6,0,5.1.07,7.59-.02,1.96-.07,2.61-1.48,2.61-3.55"/></g></g></g></svg>